<?xml version="1.0" standalone="no"?>
<!DOCTYPE svg PUBLIC "-//W3C//DTD SVG 20010904//EN"
 "http://www.w3.org/TR/2001/REC-SVG-20010904/DTD/svg10.dtd">
<svg version="1.0" xmlns="http://www.w3.org/2000/svg"
 width="2000.000000pt" height="1500.000000pt" viewBox="0 0 2000.000000 1500.000000" rx="150" ry="150"
 preserveAspectRatio="xMidYMid meet" >

<g transform="translate(0.000000,1500.000000) scale(0.100000,-0.100000)"
fill="#FFFFFF" >
<path d="M0 7500 l0 -7500 10000 0 10000 0 0 7500 0 7500 -10000 0 -10000 0 0
-7500z m6380 3720 c895 -161 1762 -371 2765 -668 l130 -39 101 -509 c428
-2150 689 -3583 774 -4259 38 -297 57 -603 44 -710 l-9 -80 -60 -32 c-432
-233 -1079 -250 -1543 -42 -78 35 -215 125 -254 166 l-26 28 169 565 169 565
-35 160 c-19 88 -37 170 -40 183 -5 21 -9 22 -143 22 -129 0 -416 18 -915 56
-120 9 -221 14 -224 10 -3 -3 -16 -84 -29 -178 -61 -462 -109 -711 -180 -927
-87 -265 -184 -432 -336 -576 -162 -154 -331 -215 -603 -216 -223 0 -411 43
-610 143 -158 79 -268 164 -357 277 -57 71 -138 215 -138 245 0 16 179 669
185 675 2 2 126 -7 275 -19 149 -13 272 -21 273 -19 2 2 166 821 364 1819 225
1133 357 1817 351 1821 -6 4 -38 10 -72 14 -193 21 -588 102 -773 158 -120 35
-111 15 -88 206 39 315 127 611 256 862 58 113 112 193 192 283 45 51 65 66
85 66 15 0 151 -22 302 -50z m5573 -1503 c100 -27 201 -71 249 -110 l28 -23
-150 -1269 c-83 -699 -149 -1281 -148 -1295 2 -14 206 540 472 1280 258 718
475 1321 483 1340 13 34 16 36 136 69 109 31 138 35 275 39 113 3 179 0 253
-13 446 -74 888 -266 1213 -525 l79 -63 -7 -206 c-41 -1242 -270 -2492 -748
-4091 -16 -53 -31 -62 -143 -85 -249 -52 -679 -27 -1030 59 -177 44 -424 124
-563 182 -59 25 -112 48 -118 50 -7 3 -14 -18 -18 -58 -10 -96 -74 -459 -105
-601 l-28 -127 401 -2 401 -3 77 -330 c45 -189 75 -340 72 -354 -3 -14 -58
-77 -122 -141 -207 -206 -462 -353 -731 -421 -121 -31 -286 -31 -396 0 -168
47 -439 200 -597 338 -170 148 -210 236 -228 508 -6 83 -33 809 -61 1615 l-50
1465 -44 185 c-183 763 -371 1730 -391 2018 -7 88 -6 90 23 133 124 179 399
338 718 415 185 44 274 53 495 50 182 -3 216 -7 303 -29z"/>
<path d="M7550 9530 c0 -152 -95 -1293 -158 -1902 -14 -138 -15 -168 -4 -168
7 0 169 15 360 34 191 19 405 40 476 47 l128 12 -6 36 c-11 68 -434 1932 -439
1938 -6 5 -270 32 -324 33 -30 0 -33 -3 -33 -30z"/>
<path d="M13000 7878 c-227 -467 -698 -1463 -771 -1632 -29 -66 -36 -93 -28
-102 22 -27 205 -138 303 -184 186 -88 471 -180 556 -180 31 0 25 -30 55 310
41 463 91 1432 96 1845 l2 120 -49 17 c-27 9 -52 17 -55 17 -3 1 -52 -95 -109
-211z"/>
</g>
</svg>
